<svg width="17" height="17" viewBox="0 0 17 17" fill="none" xmlns="http://www.w3.org/2000/svg">
<path d="M3.03571 6.375V4.78125C3.03571 2.14061 5.48326 0 8.5 0C11.5167 0 13.9643 2.14061 13.9643 4.78125V6.375H14.5714C15.9109 6.375 17 7.32793 17 8.5V14.875C17 16.0471 15.9109 17 14.5714 17H2.42857C1.08717 17 0 16.0471 0 14.875V8.5C0 7.32793 1.08717 6.375 2.42857 6.375H3.03571ZM5.46429 6.375H11.5357V4.78125C11.5357 3.31434 10.1772 2.125 8.5 2.125C6.82277 2.125 5.46429 3.31434 5.46429 4.78125V6.375Z" fill="black"/>
</svg>
