<svg width="17" height="17" viewBox="0 0 17 17" fill="none" xmlns="http://www.w3.org/2000/svg">
<path d="M10.3889 6.375H11.3333C12.3752 6.375 13.2222 7.32793 13.2222 8.5V14.875C13.2222 16.0471 12.3752 17 11.3333 17H1.88889C0.845573 17 0 16.0471 0 14.875V8.5C0 7.32793 0.845573 6.375 1.88889 6.375H8.5V4.78125C8.5 2.14061 10.4036 0 12.75 0C15.0964 0 17 2.14061 17 4.78125V6.375C17 6.9627 16.578 7.4375 16.0556 7.4375C15.5332 7.4375 15.1111 6.9627 15.1111 6.375V4.78125C15.1111 3.31434 14.0545 2.125 12.75 2.125C11.4455 2.125 10.3889 3.31434 10.3889 4.78125V6.375Z" fill="black"/>
</svg>
